<?xml version="1.0" encoding="utf-8"?>
<!-- Generator: Adobe Illustrator 16.0.0, SVG Export Plug-In . SVG Version: 6.00 Build 0)  -->
<!DOCTYPE svg PUBLIC "-//W3C//DTD SVG 1.1//EN" "http://www.w3.org/Graphics/SVG/1.1/DTD/svg11.dtd">
<svg version="1.1" id="Your_Icon" xmlns="http://www.w3.org/2000/svg" xmlns:xlink="http://www.w3.org/1999/xlink" x="0px" y="0px"
	 width="18.35px" height="23px" viewBox="40.825 38.5 18.35 23" enable-background="new 40.825 38.5 18.35 23" xml:space="preserve"
	>
<path fill="#DAD7CD" d="M54.038,38.577c0.025,0.025,0.051,0.025,0.051,0.051l0,0C54.089,38.602,54.063,38.577,54.038,38.577z"/>
<path fill="#DAD7CD" d="M59.149,43.739c0-0.025,0-0.025-0.025-0.051c-0.026-0.051-0.052-0.102-0.077-0.127l-4.932-4.932
	c-0.026-0.026-0.026-0.026-0.052-0.051s-0.051-0.025-0.076-0.025c-0.026,0-0.026-0.026-0.052-0.026
	C53.885,38.5,53.859,38.5,53.809,38.5H41.234c-0.23,0-0.409,0.179-0.409,0.409v22.183c0,0.229,0.179,0.408,0.409,0.408h17.531
	c0.23,0,0.409-0.179,0.409-0.408v-17.25C59.175,43.815,59.175,43.79,59.149,43.739z M54.217,39.88l3.553,3.552h-3.553V39.88z
	 M58.357,60.682H41.644V39.318h11.756v4.549c0,0.23,0.179,0.409,0.409,0.409h4.549V60.682z"/>
<path fill="#DAD7CD" d="M54.013,52.07c-0.179-0.332-0.537-0.486-1.15-0.486c-0.307,0-0.664,0.026-1.048,0.104
	c-0.562-0.614-1.149-1.483-1.584-2.352c0.46-1.917,0.128-2.351,0-2.504c-0.153-0.179-0.358-0.281-0.588-0.281
	c-0.103,0-0.179,0.026-0.281,0.051c-0.256,0.077-0.435,0.256-0.537,0.511c-0.204,0.485-0.076,1.278,0.409,2.326
	c-0.281,1.099-0.741,2.376-1.227,3.45c-1.329,0.614-1.993,1.201-2.07,1.841c-0.025,0.203,0,0.588,0.46,0.945
	c0.128,0.102,0.281,0.153,0.435,0.153c0.357,0,0.716-0.256,1.099-0.792c0.256-0.358,0.512-0.818,0.793-1.406
	c0.843-0.357,1.865-0.689,2.76-0.895c0.537,0.512,1.048,0.741,1.482,0.741c0.357,0,0.689-0.179,0.895-0.485
	C54.166,52.581,54.115,52.274,54.013,52.07z M46.831,55.061c-0.153-0.129-0.153-0.205-0.153-0.23
	c0.025-0.179,0.307-0.512,1.022-0.92C47.163,54.906,46.882,55.035,46.831,55.061z M49.515,47.419
	c0.025-0.051,0.051-0.077,0.077-0.077c0.025,0,0.025,0,0.025,0c0.051,0.077,0.102,0.383,0,1.099
	C49.489,48.007,49.412,47.624,49.515,47.419z M48.901,52.734c0.332-0.818,0.664-1.713,0.895-2.556
	c0.383,0.69,0.844,1.329,1.277,1.866C50.358,52.223,49.592,52.453,48.901,52.734z M53.246,52.556
	c-0.103,0.153-0.204,0.153-0.281,0.153c-0.179,0-0.435-0.128-0.69-0.332c0.23-0.025,0.435-0.051,0.588-0.051
	c0.307,0,0.409,0.051,0.46,0.076C53.297,52.453,53.297,52.504,53.246,52.556z"/>
</svg>
