<svg xmlns="http://www.w3.org/2000/svg" width="18.35" height="23" viewBox="40.825 38.5 18.35 23" enable-background="new 40.825 38.5 18.35 23"><path fill="#DAD7CD" d="M54.038 38.577c.025.025.05.025.05.05 0-.025-.025-.05-.05-.05zM59.15 43.74c0-.026 0-.026-.026-.052-.026-.05-.052-.102-.077-.127l-4.932-4.93-.052-.052s-.05-.025-.076-.025c-.026 0-.026-.026-.052-.026-.05-.027-.076-.027-.126-.027H41.233c-.23 0-.41.18-.41.41V61.09c0 .23.18.408.41.408h17.53c.23 0 .41-.18.41-.408v-17.25c0-.027 0-.052-.025-.103zm-4.933-3.86l3.553 3.552h-3.553V39.88zm4.14 20.802H41.644V39.318H53.4v4.55c0 .23.18.408.41.408h4.548v16.406zM54.013 52.07c-.18-.332-.537-.486-1.15-.486-.307 0-.664.026-1.048.104-.562-.614-1.15-1.483-1.584-2.352.46-1.917.13-2.35 0-2.504-.152-.18-.357-.28-.587-.28-.103 0-.18.025-.28.05-.257.077-.436.256-.538.51-.204.486-.076 1.28.41 2.327-.282 1.098-.742 2.375-1.228 3.45-1.33.613-1.993 1.2-2.07 1.84-.025.203 0 .588.46.945.128.102.28.153.435.153.357 0 .716-.256 1.1-.792.255-.358.51-.818.792-1.406.843-.357 1.865-.69 2.76-.895.537.512 1.048.74 1.482.74.357 0 .69-.178.895-.484.306-.41.255-.716.153-.92zm-7.182 2.99c-.152-.128-.152-.204-.152-.23.025-.178.307-.51 1.022-.92-.537.996-.818 1.125-.87 1.15zm2.685-7.64c.025-.052.05-.078.077-.078h.025c.05.077.102.383 0 1.1-.128-.435-.205-.818-.102-1.023zm-.614 5.314c.333-.818.665-1.713.896-2.556.383.69.844 1.33 1.277 1.866-.715.18-1.48.41-2.172.69zm4.346-.178c-.103.153-.204.153-.28.153-.18 0-.436-.13-.69-.333.23-.025.434-.05.587-.05.307 0 .41.05.46.075-.026.05-.026.102-.077.154z"/></svg>