<?xml version="1.0" encoding="utf-8"?>
<!-- Generator: Adobe Illustrator 16.0.0, SVG Export Plug-In . SVG Version: 6.00 Build 0)  -->
<!DOCTYPE svg PUBLIC "-//W3C//DTD SVG 1.1//EN" "http://www.w3.org/Graphics/SVG/1.1/DTD/svg11.dtd">
<svg version="1.1" id="Layer_1" xmlns="http://www.w3.org/2000/svg" xmlns:xlink="http://www.w3.org/1999/xlink" x="0px" y="0px"
	 width="26.467px" height="24px" viewBox="-1.654 -1.5 26.467 24" enable-background="new -1.654 -1.5 26.467 24"
	 xml:space="preserve">
<path id="top" fill="#DAD7CD" d="M4.921,17.841h-1.94c-0.549,0-0.995-0.447-0.995-0.996V4.422c0-0.708,0.546-1.263,1.244-1.263
	h6.365c0.698,0,1.245,0.555,1.245,1.263v0.229h9.339c0.548,0,0.992,0.445,0.992,0.993v3.292h-9.396v-1.23
	c0-0.126-0.077-0.262-0.246-0.262H5.164c-0.167,0-0.243,0.14-0.243,0.27V17.841z M3.23,4.16c-0.168,0-0.244,0.136-0.244,0.263
	v12.421l0.936-0.002V7.713c0-0.712,0.546-1.27,1.243-1.27h6.364c0.699,0,1.246,0.554,1.246,1.262v0.23h7.398V5.644L9.84,5.651V4.422
	c0-0.126-0.077-0.263-0.245-0.263L3.23,4.16L3.23,4.16z"/>
<g id="bottom">
	<polygon fill="#FFFFFF" points="10.176,4.965 10.176,3.742 2.547,3.742 2.547,17.203 10.176,17.203 20.586,17.203 20.586,4.965 	
		"/>
	<path id="top" fill="#DAD7CD" d="M20.181,17.838H2.979c-0.548,0-0.994-0.443-0.994-0.988V4.425c0-0.708,0.546-1.263,1.243-1.263
		H9.59c0.699,0,1.248,0.554,1.248,1.261v0.229h9.343c0.547,0,0.992,0.445,0.992,0.992V16.85
		C21.173,17.395,20.728,17.838,20.181,17.838z M4.417,16.838h15.761v0.5l0.002-0.5L20.173,5.644L9.837,5.652V4.423
		c0-0.125-0.077-0.261-0.247-0.261H3.228c-0.167,0-0.243,0.136-0.243,0.263V16.85L4.417,16.838z"/>
</g>
</svg>
