<svg xmlns="http://www.w3.org/2000/svg" width="23.158" height="21" viewBox="-0.551 -0.5 23.158 21" enable-background="new -0.551 -0.5 23.158 21"><path fill="#DAD7CD" d="M2.434 14.182H.494c-.55 0-.995-.447-.995-.996V.762C-.5.054.044-.5.742-.5h6.365C7.806-.5 8.353.053 8.353.76v.23h9.34c.547 0 .992.444.992.992v3.292H9.288v-1.23c0-.126-.077-.262-.246-.262H2.677c-.167 0-.243.14-.243.27v10.128zM.744.5C.573.5.498.636.498.763v12.423l.935-.003v-9.13c0-.712.546-1.27 1.243-1.27h6.364c.7 0 1.246.554 1.246 1.262v.23h7.398v-2.29L7.353 1.99V.763C7.353.636 7.276.5 7.108.5H.743zM21.565 20.5H4.363c-.548 0-.994-.443-.994-.988V7.086c0-.708.545-1.263 1.242-1.263h6.362c.7 0 1.247.554 1.247 1.26v.23h9.345c.547 0 .992.445.992.992v11.207c0 .545-.445.988-.992.988zm-15.763-1h15.762v.5-.5l-.007-11.195-10.336.008v-1.23c0-.124-.076-.26-.246-.26H4.612c-.167 0-.243.136-.243.263V19.51L5.8 19.5z"/></svg>