<?xml version="1.0" encoding="utf-8"?>
<!-- Generator: Adobe Illustrator 16.0.0, SVG Export Plug-In . SVG Version: 6.00 Build 0)  -->
<!DOCTYPE svg PUBLIC "-//W3C//DTD SVG 1.1//EN" "http://www.w3.org/Graphics/SVG/1.1/DTD/svg11.dtd">
<svg version="1.1" id="Layer_1" xmlns="http://www.w3.org/2000/svg" xmlns:xlink="http://www.w3.org/1999/xlink" x="0px" y="0px"
	 width="23.158px" height="21px" viewBox="-0.551 -0.5 23.158 21" enable-background="new -0.551 -0.5 23.158 21"
	 xml:space="preserve">
<g>
	<g>
		<path fill="#DAD7CD" d="M2.434,14.182h-1.94c-0.549,0-0.995-0.447-0.995-0.996V0.762c0-0.708,0.546-1.263,1.244-1.263h6.365
			c0.698,0,1.245,0.555,1.245,1.263v0.229h9.34c0.547,0,0.992,0.445,0.992,0.993v3.292H9.288v-1.23c0-0.126-0.077-0.262-0.246-0.262
			H2.677c-0.167,0-0.243,0.14-0.243,0.27V14.182z M0.743,0.5c-0.168,0-0.244,0.136-0.244,0.263v12.423l0.936-0.003V4.053
			c0-0.712,0.546-1.27,1.243-1.27h6.364c0.699,0,1.246,0.554,1.246,1.262v0.23h7.398V1.984L7.353,1.991V0.762
			c0-0.126-0.077-0.263-0.245-0.263H0.743z"/>
	</g>
	<g>
		<path fill="#DAD7CD" d="M21.565,20.5H4.363c-0.548,0-0.994-0.443-0.994-0.988V7.086c0-0.708,0.546-1.263,1.243-1.263h6.362
			c0.699,0,1.247,0.554,1.247,1.261v0.229h9.344c0.547,0,0.992,0.445,0.992,0.992v11.207C22.557,20.057,22.112,20.5,21.565,20.5z
			 M5.802,19.5h15.762V20l0.001-0.5L21.557,8.305L11.221,8.313V7.084c0-0.125-0.077-0.261-0.247-0.261H4.612
			c-0.167,0-0.243,0.136-0.243,0.263v12.425L5.802,19.5z"/>
	</g>
</g>
</svg>
