<svg xmlns="http://www.w3.org/2000/svg" width="18.35" height="23" viewBox="40.825 38.5 18.35 23" enable-background="new 40.825 38.5 18.35 23"><g fill="#DAD7CD"><path d="M59.098 43.637c.026.05.052.102.052.153 0-.077-.026-.128-.052-.153zM59.175 43.764c0-.05-.025-.102-.05-.153-.027-.024-.027-.05-.053-.05l-4.957-4.932c-.077-.077-.18-.128-.307-.128H41.234c-.23 0-.41.18-.41.41V61.09c0 .23.18.408.41.408h17.53c.23 0 .41-.18.41-.408V43.764zm-4.958-3.884l3.553 3.552h-3.553V39.88zm4.14 20.802H41.644V39.318H53.4v4.55c0 .23.18.408.41.408h4.548v16.406z"/></g><path fill="#DAD7CD" d="M47.29 53.297c-.075 0-.152-.025-.228-.076l-2.377-1.61c-.103-.076-.18-.203-.18-.332 0-.127.077-.256.18-.332l2.377-1.61c.18-.128.435-.077.562.103.128.178.077.433-.102.56L45.63 51.28l1.892 1.278c.18.128.23.384.102.562-.077.128-.205.18-.333.18zM52.71 53.297c-.13 0-.257-.05-.333-.18-.128-.178-.076-.434.103-.562l1.89-1.278L52.48 50c-.18-.128-.23-.383-.104-.562.128-.18.384-.23.562-.103l2.376 1.61c.103.076.18.205.18.332 0 .13-.077.256-.18.333l-2.376 1.61c-.076.05-.152.077-.23.077zM49.08 54.063c-.05 0-.103 0-.153-.026-.204-.076-.307-.307-.23-.535l1.866-4.754c.077-.205.307-.307.537-.23.204.077.307.307.23.537l-1.866 4.753c-.077.153-.23.255-.384.255z"/></svg>