<?xml version="1.0" encoding="utf-8"?>
<!-- Generator: Adobe Illustrator 16.0.0, SVG Export Plug-In . SVG Version: 6.00 Build 0)  -->
<!DOCTYPE svg PUBLIC "-//W3C//DTD SVG 1.1//EN" "http://www.w3.org/Graphics/SVG/1.1/DTD/svg11.dtd">
<svg version="1.1" id="Your_Icon" xmlns="http://www.w3.org/2000/svg" xmlns:xlink="http://www.w3.org/1999/xlink" x="0px" y="0px"
	 width="18.35px" height="23px" viewBox="40.825 38.5 18.35 23" enable-background="new 40.825 38.5 18.35 23" xml:space="preserve"
	>
<g>
	<g>
		<g>
			<path fill="#DAD7CD" d="M59.098,43.637c0.026,0.051,0.052,0.102,0.052,0.153C59.149,43.713,59.124,43.662,59.098,43.637z"/>
			<path fill="#DAD7CD" d="M59.175,43.764c0-0.051-0.025-0.102-0.051-0.153c-0.026-0.025-0.026-0.051-0.052-0.051l-4.957-4.932
				c-0.077-0.077-0.18-0.128-0.307-0.128H41.234c-0.23,0-0.409,0.179-0.409,0.409v22.183c0,0.229,0.179,0.408,0.409,0.408h17.531
				c0.23,0,0.409-0.179,0.409-0.408v-17.25C59.175,43.815,59.175,43.79,59.175,43.764z M54.217,39.88l3.553,3.552h-3.553V39.88z
				 M58.357,60.682H41.644V39.318h11.756v4.549c0,0.23,0.179,0.409,0.409,0.409h4.549V60.682z"/>
		</g>
	</g>
	<g>
		<g>
			<g>
				<path fill="#DAD7CD" d="M47.291,53.297c-0.076,0-0.153-0.025-0.229-0.076l-2.377-1.61c-0.103-0.077-0.179-0.204-0.179-0.333
					c0-0.127,0.076-0.256,0.179-0.332l2.377-1.61c0.179-0.128,0.435-0.077,0.562,0.103c0.128,0.179,0.077,0.434-0.102,0.562
					l-1.892,1.277l1.892,1.278c0.179,0.128,0.229,0.384,0.102,0.562C47.547,53.246,47.419,53.297,47.291,53.297z"/>
			</g>
		</g>
		<g>
			<g>
				<path fill="#DAD7CD" d="M52.709,53.297c-0.128,0-0.256-0.051-0.332-0.18c-0.128-0.178-0.076-0.434,0.103-0.562l1.891-1.278
					L52.479,50c-0.179-0.128-0.23-0.383-0.103-0.562c0.128-0.179,0.384-0.23,0.562-0.103l2.376,1.61
					c0.103,0.076,0.18,0.205,0.18,0.332c0,0.129-0.077,0.256-0.18,0.333l-2.376,1.61C52.862,53.271,52.786,53.297,52.709,53.297z"/>
			</g>
		</g>
		<g>
			<path fill="#DAD7CD" d="M49.08,54.063c-0.051,0-0.103,0-0.153-0.026c-0.204-0.076-0.307-0.307-0.23-0.535l1.866-4.754
				c0.077-0.205,0.307-0.307,0.537-0.23c0.204,0.077,0.307,0.307,0.229,0.537l-1.865,4.753
				C49.387,53.961,49.233,54.063,49.08,54.063z"/>
		</g>
	</g>
</g>
</svg>
