<svg xmlns="http://www.w3.org/2000/svg" width="18.35" height="23" viewBox="52.729 38.5 18.35 23" enable-background="new 52.729 38.5 18.35 23"><path fill="#DAD7CD" d="M70.95 43.56l-4.93-4.933c-.078-.076-.18-.127-.308-.127H53.14c-.23 0-.41.18-.41.41V61.09c0 .23.18.408.41.408h17.53c.23 0 .41-.178.41-.408v-17.25c0-.103-.053-.205-.13-.282zm-4.83-3.68l3.553 3.552H66.12V39.88zm4.142 20.803H53.548V39.317h11.756v4.55c0 .23.178.408.41.408h4.548v16.408zM66.096 46.856h-8.383c-.23 0-.408.18-.408.41v7.026c0 .23.18.41.408.41h8.408c.23 0 .41-.18.41-.41v-7.027c-.025-.23-.204-.41-.434-.41zm-4.6 7.03h-3.4V52.35h3.4v1.533zm0-2.327h-3.4v-1.534h3.4v1.533zm0-2.352h-3.4v-1.533h3.4v1.533zm4.217 4.677h-3.4v-1.533h3.4v1.533zm0-2.326h-3.4v-1.534h3.4v1.533zm0-2.352h-3.4v-1.533h3.4v1.533z"/></svg>