<?xml version="1.0" encoding="utf-8"?>
<!-- Generator: Adobe Illustrator 16.0.0, SVG Export Plug-In . SVG Version: 6.00 Build 0)  -->
<!DOCTYPE svg PUBLIC "-//W3C//DTD SVG 1.1//EN" "http://www.w3.org/Graphics/SVG/1.1/DTD/svg11.dtd">
<svg version="1.1" id="Your_Icon" xmlns="http://www.w3.org/2000/svg" xmlns:xlink="http://www.w3.org/1999/xlink" x="0px" y="0px"
	 width="18.35px" height="23px" viewBox="52.729 38.5 18.35 23" enable-background="new 52.729 38.5 18.35 23" xml:space="preserve"
	>
<g>
	<g>
		<g>
			<path fill="#DAD7CD" d="M70.951,43.56l-4.932-4.933c-0.077-0.076-0.18-0.127-0.307-0.127H53.139
				c-0.229,0-0.409,0.179-0.409,0.409v22.183c0,0.23,0.18,0.408,0.409,0.408H70.67c0.23,0,0.409-0.178,0.409-0.408v-17.25
				C71.079,43.739,71.027,43.637,70.951,43.56z M66.121,39.88l3.552,3.552h-3.552V39.88z M70.262,60.683H53.548V39.317h11.756v4.549
				c0,0.23,0.178,0.409,0.409,0.409h4.549V60.683z"/>
		</g>
	</g>
	<g>
		<g>
			<path fill="#DAD7CD" d="M66.096,46.856h-8.383c-0.229,0-0.408,0.179-0.408,0.409v7.027c0,0.23,0.179,0.41,0.408,0.41h8.408
				c0.23,0,0.409-0.18,0.409-0.41v-7.027C66.505,47.036,66.326,46.856,66.096,46.856z M61.496,53.885h-3.399v-1.533h3.399V53.885z
				 M61.496,51.559h-3.399v-1.533h3.399V51.559z M61.496,49.208h-3.399v-1.533h3.399V49.208z M65.713,53.885h-3.399v-1.533h3.399
				V53.885z M65.713,51.559h-3.399v-1.533h3.399V51.559z M65.713,49.208h-3.399v-1.533h3.399V49.208z"/>
		</g>
	</g>
</g>
</svg>
