<?xml version="1.0" encoding="utf-8"?>
<!-- Generator: Adobe Illustrator 16.0.0, SVG Export Plug-In . SVG Version: 6.00 Build 0)  -->
<!DOCTYPE svg PUBLIC "-//W3C//DTD SVG 1.1//EN" "http://www.w3.org/Graphics/SVG/1.1/DTD/svg11.dtd">
<svg version="1.1" id="Your_Icon" xmlns="http://www.w3.org/2000/svg" xmlns:xlink="http://www.w3.org/1999/xlink" x="0px" y="0px"
	 width="18.35px" height="23px" viewBox="40.825 38.5 18.35 23" enable-background="new 40.825 38.5 18.35 23" xml:space="preserve"
	>
<g>
	<g>
		<g>
			<path fill="#DAD7CD" d="M59.047,43.56l-4.932-4.932c-0.077-0.077-0.18-0.128-0.307-0.128H41.234c-0.23,0-0.409,0.179-0.409,0.409
				v22.183c0,0.229,0.179,0.408,0.409,0.408h17.531c0.23,0,0.409-0.179,0.409-0.408v-17.25
				C59.175,43.739,59.124,43.637,59.047,43.56z M54.217,39.88l3.553,3.552h-3.553V39.88z M58.357,60.682H41.644V39.318h11.756v4.549
				c0,0.23,0.179,0.409,0.409,0.409h4.549V60.682z"/>
		</g>
	</g>
	<g>
		<g>
			<path fill="#DAD7CD" d="M50.537,47.01c-0.23,0-0.409,0.179-0.409,0.409v3.297c0,0.229,0.179,0.409,0.409,0.409h3.297
				c0.229,0,0.408-0.18,0.408-0.409C54.242,48.671,52.581,47.01,50.537,47.01z M50.946,50.332v-2.453
				c1.277,0.179,2.274,1.201,2.453,2.453H50.946z"/>
		</g>
		<g>
			<path fill="#DAD7CD" d="M52.709,51.457h-2.913v-2.888c0-0.23-0.179-0.409-0.409-0.409c-2.044,0-3.706,1.661-3.706,3.705
				c0,2.045,1.662,3.706,3.706,3.706c2.045,0,3.706-1.661,3.706-3.706C53.118,51.661,52.913,51.457,52.709,51.457z M49.387,54.779
				c-1.585,0-2.888-1.304-2.888-2.889c0-1.456,1.073-2.657,2.479-2.862v2.862c0,0.23,0.18,0.41,0.409,0.41h2.862
				C52.07,53.68,50.844,54.779,49.387,54.779z"/>
		</g>
	</g>
</g>
</svg>
