<svg xmlns="http://www.w3.org/2000/svg" width="18.35" height="23" viewBox="40.825 38.5 18.35 23" enable-background="new 40.825 38.5 18.35 23"><path fill="#DAD7CD" d="M59.047 43.56l-4.932-4.932c-.077-.077-.18-.128-.307-.128H41.234c-.23 0-.41.18-.41.41V61.09c0 .23.18.408.41.408h17.53c.23 0 .41-.18.41-.408v-17.25c0-.103-.05-.205-.127-.282zm-4.83-3.68l3.553 3.552h-3.553V39.88zm4.14 20.802H41.644V39.318H53.4v4.55c0 .23.18.408.41.408h4.548v16.406zM50.537 47.01c-.23 0-.41.18-.41.41v3.296c0 .23.18.41.41.41h3.297c.23 0 .408-.18.408-.41 0-2.045-1.66-3.706-3.705-3.706zm.41 3.322V47.88c1.276.178 2.273 1.2 2.452 2.452h-2.454zM52.71 51.457h-2.914V48.57c0-.23-.18-.41-.41-.41-2.043 0-3.705 1.66-3.705 3.705s1.663 3.706 3.707 3.706c2.045 0 3.706-1.66 3.706-3.705.025-.204-.18-.408-.384-.408zm-3.323 3.322c-1.585 0-2.888-1.305-2.888-2.89 0-1.456 1.072-2.657 2.478-2.862v2.862c0 .23.18.41.41.41h2.86c-.178 1.38-1.404 2.48-2.86 2.48z"/></svg>